<?xml version="1.0" encoding="utf-8"?>
<!-- Generator: Adobe Illustrator 28.0.0, SVG Export Plug-In . SVG Version: 6.00 Build 0)  -->
<svg version="1.1" id="Ebene_1" xmlns="http://www.w3.org/2000/svg" xmlns:xlink="http://www.w3.org/1999/xlink" x="0px" y="0px"
	 viewBox="0 0 301.6 55.3" style="enable-background:new 0 0 301.6 55.3;" xml:space="preserve">
<style type="text/css">
	.st0{fill:#FFFFFF;}
</style>
<g>
	<path class="st0" d="M258.6,20.1c-2.9-2.3-6.6-3.7-10.5-3.7c-9.4,0-17.1,7.9-17.1,17.6s7.7,17.6,17.1,17.6c3.9,0,7.6-1.3,10.5-3.7
		v3h6.6V16.6h-6.6V20.1L258.6,20.1z M248.1,44.8c-5.8,0-10.5-4.8-10.5-10.8s4.7-10.8,10.5-10.8S258.6,28,258.6,34
		S253.8,44.8,248.1,44.8 M274.4,3.9c2.2,0,4,1.8,4,4s-1.8,4-4,4s-4-1.8-4-4S272.1,3.9,274.4,3.9 M91.4,16.4
		c9.4,0,17.1,7.9,17.1,17.6v16.9h-6.6V34c0-6-4.7-10.8-10.5-10.8S80.8,28,80.8,34v16.9h-6.6V4.4h6.6v15.7
		C83.8,17.8,87.5,16.4,91.4,16.4 M169.7,16.4c9.4,0,17.1,7.9,17.1,17.6v16.9h-6.6V34c0-6-4.7-10.8-10.5-10.8S159.2,28,159.2,34v16.9
		h-6.6V4.4h6.6v15.7C162.1,17.8,165.8,16.4,169.7,16.4 M209.8,16.4c9.4,0,17.1,7.9,17.1,17.6v16.9h-6.6V34c0-6-4.7-10.8-10.5-10.8
		S199.2,28,199.2,34v16.9h-6.6V16.6h6.6V20C202.3,17.8,205.9,16.4,209.8,16.4 M140.1,20.1c-2.9-2.3-6.6-3.7-10.5-3.7
		c-9.4,0-17.1,7.9-17.1,17.6s7.7,17.6,17.1,17.6c3.9,0,7.6-1.3,10.5-3.7v3h6.6V16.6h-6.6V20.1L140.1,20.1z M129.7,44.8
		c-5.8,0-10.5-4.8-10.5-10.8s4.7-10.8,10.5-10.8S140.2,28,140.2,34S135.4,44.8,129.7,44.8 M271.1,16.6h6.6v34.2h-6.6V16.6
		L271.1,16.6z M300.9,16.5v6.8h-0.2c-5.8,0-10.5,4.8-10.5,10.8V51h-6.6V34.1c0-7.7,4.2-11.8,6.6-13.9c2.9-2.3,6.6-3.7,10.5-3.7
		L300.9,16.5L300.9,16.5z"/>
	<path class="st0" d="M55.2,27.6C55.2,12.5,43,0.4,27.9,0.4S0.7,12.6,0.7,27.6S12.9,54.9,28,54.9S55.2,42.8,55.2,27.6L55.2,27.6z
		 M51.1,25.8l-36.3,21v-9.5c0-0.5,0.3-1,0.8-1.2l6.1-2.8l-6-2.9c-0.5-0.2-0.9-0.7-0.9-1.2v-8.1l14.7,8.6l3.6-1.6L15.6,17.9
		c-0.4-0.2-0.8-0.7-0.8-1.2V8.6l26.4,15.9l3.2-1.4c0.8-0.3,1.5-0.3,2.3,0.1L51.1,25.8L51.1,25.8z"/>
</g>
</svg>
